<svg width="60" height="60" viewBox="0 0 60 60" fill="none" xmlns="http://www.w3.org/2000/svg">
<circle cx="30" cy="30" r="30" fill="#FA7268"/>
<path d="M16 22.8571C16 21.8342 16.4064 20.8531 17.1297 20.1297C17.8531 19.4064 18.8342 19 19.8571 19H37.8571C38.8801 19 39.8612 19.4064 40.5846 20.1297C41.3079 20.8531 41.7143 21.8342 41.7143 22.8571V32.8986C41.1405 32.3474 40.4911 31.8807 39.7857 31.5126V28.6429H27.0057L29.2171 30.8543C29.3119 30.9426 29.3879 31.049 29.4406 31.1673C29.4933 31.2856 29.5216 31.4133 29.5239 31.5428C29.5262 31.6722 29.5024 31.8008 29.4539 31.9209C29.4054 32.041 29.3332 32.1501 29.2416 32.2416C29.1501 32.3332 29.041 32.4054 28.9209 32.4539C28.8008 32.5024 28.6722 32.5262 28.5428 32.5239C28.4133 32.5216 28.2856 32.4933 28.1673 32.4406C28.049 32.3879 27.9426 32.3119 27.8543 32.2171L25.6429 30.0057V36.3571H27.9739C27.7759 36.9717 27.646 37.6171 27.5959 38.2857H19.8571C18.8342 38.2857 17.8531 37.8793 17.1297 37.156C16.4064 36.4326 16 35.4515 16 34.4286V22.8571ZM19.8571 20.9286C19.3457 20.9286 18.8551 21.1318 18.4934 21.4934C18.1318 21.8551 17.9286 22.3457 17.9286 22.8571V26.7143H19.4817C19.2229 26.1221 19.1485 25.4655 19.2685 24.8304C19.3884 24.1953 19.6971 23.6111 20.1541 23.1541C20.6111 22.6971 21.1953 22.3884 21.8304 22.2685C22.4655 22.1485 23.1221 22.2229 23.7143 22.4817V20.9286H19.8571ZM25.6429 20.9286V22.4817C26.2351 22.2229 26.8916 22.1485 27.5267 22.2685C28.1618 22.3884 28.746 22.6971 29.203 23.1541C29.6601 23.6111 29.9687 24.1953 30.0886 24.8304C30.2086 25.4655 30.1343 26.1221 29.8754 26.7143H39.7857V22.8571C39.7857 22.3457 39.5825 21.8551 39.2208 21.4934C38.8592 21.1318 38.3686 20.9286 37.8571 20.9286H25.6429ZM23.7143 36.3571V30.0057L21.5029 32.2171C21.3201 32.3875 21.0783 32.4802 20.8285 32.4758C20.5787 32.4714 20.3403 32.3702 20.1636 32.1935C19.987 32.0168 19.8858 31.7785 19.8813 31.5287C19.8769 31.2789 19.9697 31.0371 20.14 30.8543L22.3514 28.6429H17.9286V34.4286C17.9286 34.9401 18.1318 35.4306 18.4934 35.7923C18.8551 36.154 19.3457 36.3571 19.8571 36.3571H23.7143ZM26.9286 26.7143C27.1829 26.7143 27.4314 26.6389 27.6429 26.4976C27.8543 26.3563 28.0191 26.1555 28.1164 25.9206C28.2137 25.6857 28.2392 25.4271 28.1896 25.1777C28.14 24.9283 28.0175 24.6992 27.8377 24.5194C27.6579 24.3396 27.4288 24.2172 27.1794 24.1676C26.93 24.118 26.6715 24.1434 26.4365 24.2407C26.2016 24.338 26.0008 24.5028 25.8595 24.7143C25.7183 24.9257 25.6429 25.1743 25.6429 25.4286V26.7143H26.9286ZM23.7143 25.4234C23.7133 25.1694 23.637 24.9213 23.4951 24.7105C23.3532 24.4998 23.1521 24.3358 22.917 24.2393C22.682 24.1427 22.4237 24.118 22.1746 24.1682C21.9255 24.2184 21.6969 24.3412 21.5176 24.5213C21.3383 24.7013 21.2164 24.9304 21.1672 25.1796C21.118 25.4289 21.1438 25.6871 21.2412 25.9218C21.3387 26.1564 21.5035 26.3569 21.7148 26.498C21.9261 26.639 22.1745 26.7143 22.4286 26.7143H23.7143V25.4234ZM43 38.9286C43 37.0531 42.255 35.2545 40.9288 33.9283C39.6027 32.6022 37.804 31.8571 35.9286 31.8571C34.0531 31.8571 32.2545 32.6022 30.9283 33.9283C29.6022 35.2545 28.8571 37.0531 28.8571 38.9286C28.8571 40.804 29.6022 42.6027 30.9283 43.9288C32.2545 45.255 34.0531 46 35.9286 46C37.804 46 39.6027 45.255 40.9288 43.9288C42.255 42.6027 43 40.804 43 38.9286ZM36.5714 39.5714L36.5727 42.7896C36.5727 42.9601 36.505 43.1236 36.3844 43.2441C36.2639 43.3647 36.1004 43.4324 35.9299 43.4324C35.7594 43.4324 35.5958 43.3647 35.4753 43.2441C35.3547 43.1236 35.287 42.9601 35.287 42.7896V39.5714H32.0663C31.8958 39.5714 31.7323 39.5037 31.6117 39.3831C31.4912 39.2626 31.4234 39.0991 31.4234 38.9286C31.4234 38.7581 31.4912 38.5946 31.6117 38.474C31.7323 38.3534 31.8958 38.2857 32.0663 38.2857H35.2857V35.0714C35.2857 34.9009 35.3534 34.7374 35.474 34.6169C35.5946 34.4963 35.7581 34.4286 35.9286 34.4286C36.0991 34.4286 36.2626 34.4963 36.3831 34.6169C36.5037 34.7374 36.5714 34.9009 36.5714 35.0714V38.2857H39.7819C39.9524 38.2857 40.1159 38.3534 40.2364 38.474C40.357 38.5946 40.4247 38.7581 40.4247 38.9286C40.4247 39.0991 40.357 39.2626 40.2364 39.3831C40.1159 39.5037 39.9524 39.5714 39.7819 39.5714H36.5714Z" fill="white"/>
</svg>
