<svg width="31" height="31" viewBox="0 0 31 31" fill="none" xmlns="http://www.w3.org/2000/svg">
<path d="M14.6703 8.22496C14.922 8.07765 15.2084 8 15.5 8C15.7916 8 16.078 8.07765 16.3297 8.22496L22.1891 11.659C22.6916 11.9534 23 12.4925 23 13.0746V19.1C23 19.5351 22.8271 19.9524 22.5195 20.2601C22.2118 20.5677 21.7945 20.7406 21.3594 20.7406H9.64062C9.2055 20.7406 8.7882 20.5677 8.48053 20.2601C8.17285 19.9524 8 19.5351 8 19.1V13.0746C8 12.4925 8.30937 11.9534 8.81094 11.659L14.6703 8.22496ZM15.6181 9.43715C15.5822 9.41641 15.5415 9.40549 15.5 9.40549C15.4585 9.40549 15.4178 9.41641 15.3819 9.43715L10.0194 12.5806L14.0637 14.8906C14.4886 14.605 14.989 14.4525 15.5009 14.4525C16.0129 14.4525 16.5132 14.605 16.9381 14.8906L20.9806 12.5806L15.6181 9.43715ZM20.3281 19.3343L16.2238 16.1093C16.0173 15.9472 15.7625 15.8591 15.5 15.8591C15.2375 15.8591 14.9827 15.9472 14.7763 16.1093L10.6719 19.3343H20.3281ZM21.5938 13.85L18.1372 15.8243L21.5938 18.5403V13.85ZM12.8628 15.8243L9.40625 13.85V18.5403L12.8628 15.8243Z" fill="#707070"/>
<circle cx="15.5" cy="15.5" r="15.15" stroke="#707070" stroke-width="0.7"/>
</svg>
