<svg width="67" height="32" viewBox="0 0 67 32" fill="none" xmlns="http://www.w3.org/2000/svg">
<rect width="67" height="32" rx="16" fill="#303030"/>
<path d="M15.5 9C14.3069 9.0013 13.1631 9.45701 12.3195 10.2672C11.4759 11.0773 11.0014 12.1757 11 13.3215C11 17.0193 15.0909 19.812 15.2653 19.9289C15.3341 19.9752 15.416 20 15.5 20C15.584 20 15.6659 19.9752 15.7347 19.9289C15.9091 19.812 20 17.0193 20 13.3215C19.9986 12.1757 19.5241 11.0773 18.6805 10.2672C17.8369 9.45701 16.6931 9.0013 15.5 9ZM15.5 11.75C15.8236 11.75 16.14 11.8422 16.4091 12.0149C16.6782 12.1875 16.888 12.433 17.0118 12.7201C17.1357 13.0073 17.1681 13.3232 17.1049 13.628C17.0418 13.9329 16.8859 14.2129 16.6571 14.4327C16.4282 14.6524 16.1367 14.8021 15.8192 14.8627C15.5018 14.9234 15.1728 14.8922 14.8738 14.7733C14.5748 14.6544 14.3192 14.4529 14.1394 14.1945C13.9596 13.9361 13.8636 13.6323 13.8636 13.3215C13.8636 12.9047 14.036 12.505 14.3429 12.2103C14.6498 11.9156 15.066 11.75 15.5 11.75Z" fill="white"/>
</svg>
